<svg xmlns="http://www.w3.org/2000/svg" data-v-423bf9ae="" width="99" height="111" style=""><rect id="backgroundrect" width="100%" height="100%" x="0" y="0" fill="none" stroke="none" class="" style=""/><!----><!----><!----><!----><!----><g class="currentLayer" style=""><title>Layer 1</title><g data-v-423bf9ae="" id="59d119a6-257e-4074-9c35-2da7537b596d" stroke="#dadada" fill="#ffffff" class="selected" stroke-opacity="1" fill-opacity="1"><path d="M98.97400060959133,25.119458114594206 l-0.013353811645507816,-0.09013822860717777 a3.5454369918823243,3.5454369918823243 0 0 0 -0.0801228698730469,-0.3705682731628421 c-0.0066769058227539105,-0.024481988016764336 -0.011128176371256515,-0.048963976033528665 -0.020030717468261725,-0.07233314641316735 a3.0658125902811686,3.0658125902811686 0 0 0 -0.19140463358561205,-0.49409103088378914 a4.541408777109782,4.541408777109782 0 0 0 -0.09570231679280602,-0.19585590413411463 c-0.021143535105387377,-0.03561016438802086 -0.04562552312215173,-0.06899469350179041 -0.06899469350179041,-0.1034920402526856 a3.588836879730225,3.588836879730225 0 0 0 -0.3182658442179363,-0.4540295959472658 a3.7680005193074546,3.7680005193074546 0 0 0 -0.30713766784667984,-0.31715302658081057 c-0.023369170379638683,-0.020030717468261725 -0.04339988784790042,-0.03783579966227215 -0.06899469350179041,-0.056753699493408236 a3.2327352358500168,3.2327352358500168 0 0 0 -0.29712230911254894,-0.23146606852213547 l-0.06565624059041346,-0.04562552312215173 a3.0802792195638022,3.0802792195638022 0 0 0 -0.38280926717122415,-0.21699943923950205 c-0.008902541097005213,-0.004451270548502606 -0.015579446919759125,-0.011128176371256515 -0.025594805653889986,-0.015579446919759125 L51.00377072601589,0.3414606063544601 a3.460862851460775,3.460862851460775 0 0 0 -2.997930714416504,0 L1.9630102755255692,22.454259873678275 a3.4619756690979013,3.4619756690979013 0 0 0 -1.9630103118896485,3.120340654500326 v56.88278633931478 c0,1.2585967475891113 0.6821572115580244,2.4170399078369145 1.782733854675293,3.027976790618897 l46.04282973607381,25.530262230936685 a3.2750223060607913,3.2750223060607913 0 0 0 0.7678441696166995,0.3104761207580568 c0.03449734675089519,0.008902541097005213 0.06899469350179041,0.01891789983113607 0.1034920402526856,0.025594805653889986 c0.09904076970418302,0.024481988016764336 0.20030717468261722,0.042287070210774755 0.3026863972981772,0.05897933476765953 c0.03338452911376956,0.0055640881856282584 0.06788187586466471,0.012240994008382168 0.10237922261555994,0.01669226455688477 a3.209366065470378,3.209366065470378 0 0 0 0.8045671516418457,0 c0.03449734675089519,-0.004451270548502606 0.06899469350179041,-0.011128176371256515 0.10237922261555994,-0.01669226455688477 c0.10237922261555994,-0.01669226455688477 0.2036456275939942,-0.03227171147664389 0.3015735796610515,-0.05897933476765953 c0.03449734675089519,-0.008902541097005213 0.0712203287760417,-0.01891789983113607 0.10683049316406253,-0.025594805653889986 c0.10794331080118819,-0.028933258565266937 0.21254816869099943,-0.06565624059041346 0.31715302658081057,-0.10460485788981123 c0.023369170379638683,-0.0066769058227539105 0.04339988784790042,-0.015579446919759125 0.06676905822753912,-0.023369170379638683 a4.041753658040365,4.041753658040365 0 0 0 0.38280926717122415,-0.18250209248860685 l46.04282973607381,-25.530262230936685 a3.465314122009277,3.465314122009277 0 0 0 1.7838466723124191,-3.027976790618897 V25.574600528178596 v-0.0077897234598795625 a4.328860608418783,4.328860608418783 0 0 0 -0.03672298202514651,-0.4473526901245119 zm-6.885002720896403,55.29702120641073 L52.965668220268405,102.11419760968087 V89.91437785387237 a3.460862851460775,3.460862851460775 0 0 0 -6.922838520558676,0 v12.199819755808514 L6.921725666557469,80.41870495627919 V31.190991142751756 a19.889389628346763,19.889389628346763 0 0 1 10.625182799275716,5.53738056233724 l6.986269125874838,7.7173903134663915 c-1.1640072484334312,1.477821822102865 -2.654070064544678,3.549888262430827 -3.0691510431925457,5.110058589680991 a13.294832310740153,13.294832310740153 0 0 0 1.3442837056477865,10.111061050923666 l23.062032711791993,-13.36493982187907 a13.293719493103028,13.293719493103028 0 0 0 -8.103538033548991,-6.1950557858785 c-2.063163899230957,-0.5486190951029459 -5.219114718119304,-0.19919435704549165 -7.199930112202962,0.20920971577962244 l-0.5285883776346842,0.33829656168619804 l-7.79640036570231,-8.62322387008667 a26.618597880045577,26.618597880045577 0 0 0 -10.660792963663738,-6.517772900644939 L49.50369255117051,7.299909291301155 l38.50794151509603,18.49502912902832 l-25.090699264272054,13.91467173461914 a3.460862851460775,3.460862851460775 0 0 0 1.6825802673339847,6.489952459716797 c0.5664241772969564,0 1.1428637133280435,-0.14021502227783206 1.6736777262369795,-0.4362245137532554 l25.809579457855225,-14.310834813435871 v20.646105621592206 h-0.20920971577962244 c0,11.352965533955892 -9.234160752868652,20.587126286824546 -20.587126286824546,20.587126286824546 c-4.039528022766113,0 -7.795287548065185,-1.1840379659016929 -10.973494719696046,-3.2015763420104983 a10.267968337758383,10.267968337758383 0 0 0 -2.3324657674153646,-10.941223008219403 l-2.6362649823506676,2.634039347076416 l-5.112284224955241,-5.110058589680991 l-0.003338452911376955,0.003338452911376955 a1.711513525899251,1.711513525899251 0 1 0 -2.4203783607482907,2.4226039960225423 l5.108945772043865,5.110058589680991 l-4.4368039192199715,4.4356911015828455 l-5.261401788330078,-5.261401788330078 l-0.003338452911376955,0.003338452911376955 a1.713739161173503,1.713739161173503 0 0 0 -2.4214911783854167,2.4226039960225423 l5.262514605967204,5.262514605967204 l-2.6362649823506676,2.634039347076416 a10.266855520121258,10.266855520121258 0 0 0 7.280052982076009,3.0146229789733887 a10.243486349741618,10.243486349741618 0 0 0 5.112284224955241,-1.3665400583902996 a27.29185255050659,27.29185255050659 0 0 0 15.474842061869305,4.798469651285807 c8.309409296417236,0 15.759723376973472,-3.714585272725423 20.797448820241293,-9.565780408732097 v10.436003800964356 z" stroke-width="0" id="svg_2" stroke="#dadada" stroke-opacity="1" fill="#ffffff" fill-opacity="1"/></g></g></svg>